<?xml version="1.0" encoding="UTF-8"?>
<svg width="752pt" height="752pt" version="1.1" viewBox="0 0 752 752" xmlns="http://www.w3.org/2000/svg">
 <path d="m450.37 146.61h-203.86c-18.5 0-33.297 14.801-33.297 33.297v392.18c0 18.5 14.801 33.297 33.297 33.297h258.99c18.5 0 33.297-14.801 33.297-33.297v-337.05zm-0.36719 20.719 68.074 68.078h-49.578c-10.359 0-18.5-8.1406-18.5-18.5zm73.996 404.77c0 10.359-8.1406 18.5-18.5 18.5h-258.99c-10.359 0-18.5-8.1406-18.5-18.5v-85.098h295.99zm0-99.895h-295.99v-292.29c0-10.359 8.1406-18.5 18.5-18.5h188.69v55.496c0 18.5 14.801 33.297 33.297 33.297h55.496zm-159.09 73.996h11.098c4.0703 0 7.3984 3.3281 7.3984 7.3984s-3.3281 7.3984-7.3984 7.3984h-25.527c-3.6992 0-7.0312 2.5898-7.7695 6.2891-0.73828 4.8086 2.9609 8.5078 7.3984 8.5078h25.898c12.211 0 22.199-9.9883 22.199-22.199 0-12.211-9.9883-22.199-22.199-22.199h-11.098c-4.0703 0-7.3984-3.3281-7.3984-7.3984 0-4.0703 3.3281-7.3984 7.3984-7.3984h25.527c3.6992 0 7.0312-2.5898 7.7695-6.2891 0.73828-4.8086-2.9609-8.5078-7.3984-8.5078h-25.898c-12.211 0-22.199 9.9883-22.199 22.199 0 12.207 9.9883 22.199 22.199 22.199zm77.695 29.598c4.0703 0 7.3984-3.3281 7.3984-7.3984v-29.969l8.1406 15.168c1.4805 2.5898 4.0703 3.6992 6.6602 3.6992s5.1797-1.4805 6.6602-3.6992l8.1406-15.168v29.969c0 4.0703 3.3281 7.3984 7.3984 7.3984 4.0703 0 7.3984-3.3281 7.3984-7.3984v-59.199c0-4.0703-3.3281-7.3984-7.3984-7.3984-2.9609 0-5.1797 1.4805-6.2891 3.6992 0 0-15.91 28.859-15.91 28.859s-15.539-28.859-15.91-28.859c-1.1094-2.2188-3.6992-3.6992-6.2891-3.6992-4.0703 0-7.3984 3.3281-7.3984 7.3984v59.199c0 4.0703 3.3281 7.3984 7.3984 7.3984zm-181.29-0.37109c3.6992 1.4805 8.1406-0.73828 9.25-4.8086l3.3281-9.6211h19.238l3.3281 9.6211c1.4805 3.6992 5.5508 5.918 9.25 4.8086s5.918-5.5508 4.8086-9.25l-19.98-59.199c-1.1016-3.3281-2.9531-5.1758-7.0234-5.1758-4.0703 0-6.2891 2.5898-7.0312 5.1797l-19.98 59.199c-1.1055 3.6992 1.1133 7.7695 4.8125 9.2461zm22.199-42.918 4.4414 13.688h-9.25zm114.33-284.52-40.328-23.312c-2.2188-1.4805-5.1797-1.1094-7.3984 0l-74.367 42.918c-2.2188 1.1094-3.6992 3.6992-3.6992 6.2891v102.48c0 2.2188 1.1094 5.1797 3.6992 6.2891 0.73828 0.37109 125.8 72.516 125.8 72.516 1.1094 0.73828 2.2188 0.73828 3.3281 0.73828 1.4805 0 2.5898-0.37109 3.6992-1.1094l74.367-42.918c2.2188-1.4805 3.3281-3.6992 3.3281-6.2891v-102.86c0-1.1094-0.37109-2.2188-1.1094-3.3281-0.37109-1.1094-1.1094-1.8516-2.2188-2.2188 0.36719 0.003906-84.73-49.203-84.73-49.203h-0.36719zm-44.031-8.5117 25.898 14.801-59.199 34.039-25.898-14.801zm3.7031 173.15-70.297-40.699-0.003906-85.465 25.898 14.801v46.988c0 2.9609 1.4805 5.1797 3.6992 6.2891 1.1094 0.73828 40.699 23.309 40.699 23.309zm40.695 23.309-25.898-14.801v-46.984c0-2.5898-1.4805-5.1797-3.6992-6.2891-1.1094-0.73828-40.699-23.309-40.699-23.309v-34.039l70.297 40.699zm74-34.039-59.199 34.039v-85.465l59.199-34.039zm-66.598-64.004-70.297-40.699 59.199-34.039 70.297 40.699z"/>
</svg>
